<svg id="visual" viewBox="0 0 1500 1000" width="1500" height="1000" xmlns="http://www.w3.org/2000/svg" xmlns:xlink="http://www.w3.org/1999/xlink" version="1.1"><rect x="0" y="0" width="1500" height="1000" fill="#001220"></rect><defs><linearGradient id="grad1_0" x1="33.3%" y1="0%" x2="100%" y2="100%"><stop offset="20%" stop-color="#c62368" stop-opacity="1"></stop><stop offset="80%" stop-color="#c62368" stop-opacity="1"></stop></linearGradient></defs><defs><linearGradient id="grad1_1" x1="33.3%" y1="0%" x2="100%" y2="100%"><stop offset="20%" stop-color="#c62368" stop-opacity="1"></stop><stop offset="80%" stop-color="#001220" stop-opacity="1"></stop></linearGradient></defs><defs><linearGradient id="grad2_0" x1="0%" y1="0%" x2="66.7%" y2="100%"><stop offset="20%" stop-color="#c62368" stop-opacity="1"></stop><stop offset="80%" stop-color="#c62368" stop-opacity="1"></stop></linearGradient></defs><defs><linearGradient id="grad2_1" x1="0%" y1="0%" x2="66.7%" y2="100%"><stop offset="20%" stop-color="#001220" stop-opacity="1"></stop><stop offset="80%" stop-color="#c62368" stop-opacity="1"></stop></linearGradient></defs><g transform="translate(1500, 0)"><path d="M0 901.4C-53.5 834 -107 766.5 -172.9 757.5C-238.8 748.5 -317.1 797.9 -383.6 796.5C-450 795 -504.5 742.7 -546.8 685.7C-589.1 628.7 -619.1 566.9 -633.3 505C-647.4 443.1 -645.7 381 -692.8 333.7C-740 286.3 -835.9 253.7 -878.8 200.6C-921.7 147.4 -911.5 73.7 -901.4 0L0 0Z" fill="#4b2d66"></path><path d="M0 450.7C-26.7 417 -53.5 383.3 -86.4 378.8C-119.4 374.3 -158.6 399 -191.8 398.2C-225 397.5 -252.3 371.3 -273.4 342.8C-294.5 314.3 -309.6 283.5 -316.6 252.5C-323.7 221.6 -322.9 190.5 -346.4 166.8C-370 143.2 -417.9 126.9 -439.4 100.3C-460.8 73.7 -455.8 36.9 -450.7 0L0 0Z" fill="#c62368"></path></g><g transform="translate(0, 1000)"><path d="M0 -901.4C65.2 -893.1 130.5 -884.8 199.2 -872.6C267.8 -860.3 339.9 -844.2 380.5 -790.1C421.1 -736.1 430.2 -644.1 484.5 -607.5C538.7 -570.8 638.2 -589.5 704.7 -562C771.3 -534.5 804.9 -460.9 806.4 -388.3C807.9 -315.8 777.3 -244.3 787.7 -179.8C798.2 -115.3 849.8 -57.6 901.4 0L0 0Z" fill="#4b2d66"></path><path d="M0 -450.7C32.6 -446.5 65.2 -442.4 99.6 -436.3C133.9 -430.2 170 -422.1 190.3 -395.1C210.6 -368 215.1 -322.1 242.2 -303.7C269.4 -285.4 319.1 -294.7 352.4 -281C385.6 -267.3 402.4 -230.4 403.2 -194.2C403.9 -157.9 388.6 -122.2 393.9 -89.9C399.1 -57.6 424.9 -28.8 450.7 0L0 0Z" fill="#c62368"></path></g></svg>