<svg id="visual" viewBox="0 0 1600 1000" width="1600" height="1000" xmlns="http://www.w3.org/2000/svg" xmlns:xlink="http://www.w3.org/1999/xlink" version="1.1"><rect x="0" y="0" width="1600" height="1000" fill="#020617"></rect><defs><linearGradient id="grad1_0" x1="37.5%" y1="100%" x2="100%" y2="0%"><stop offset="17.999999999999996%" stop-color="#001230" stop-opacity="1"></stop><stop offset="82%" stop-color="#001230" stop-opacity="1"></stop></linearGradient></defs><defs><linearGradient id="grad1_1" x1="37.5%" y1="100%" x2="100%" y2="0%"><stop offset="17.999999999999996%" stop-color="#001230" stop-opacity="1"></stop><stop offset="82%" stop-color="#020617" stop-opacity="1"></stop></linearGradient></defs><defs><linearGradient id="grad2_0" x1="0%" y1="100%" x2="62.5%" y2="0%"><stop offset="17.999999999999996%" stop-color="#001230" stop-opacity="1"></stop><stop offset="82%" stop-color="#001230" stop-opacity="1"></stop></linearGradient></defs><defs><linearGradient id="grad2_1" x1="0%" y1="100%" x2="62.5%" y2="0%"><stop offset="17.999999999999996%" stop-color="#020617" stop-opacity="1"></stop><stop offset="82%" stop-color="#001230" stop-opacity="1"></stop></linearGradient></defs><g transform="translate(1600, 1000)"><path d="M-801.9 0C-783.2 -144.1 -764.4 -288.3 -694.5 -400.9C-624.5 -513.6 -503.3 -594.9 -379 -656.4C-254.7 -718 -127.4 -760 0 -801.9L0 0Z" fill="#040d23"></path><path d="M-400.9 0C-391.6 -72.1 -382.2 -144.1 -347.2 -200.5C-312.2 -256.8 -251.6 -297.4 -189.5 -328.2C-127.4 -359 -63.7 -380 0 -400.9L0 0Z" fill="#001230"></path></g><g transform="translate(0, 0)"><path d="M801.9 0C791.5 158.6 781.1 317.1 694.5 400.9C607.8 484.8 444.9 493.8 316.5 548.2C188.1 602.6 94 702.2 0 801.9L0 0Z" fill="#040d23"></path><path d="M400.9 0C395.7 79.3 390.5 158.6 347.2 200.5C303.9 242.4 222.5 246.9 158.3 274.1C94 301.3 47 351.1 0 400.9L0 0Z" fill="#001230"></path></g></svg>